<?xml version="1.0" encoding="utf-8"?>
<!-- Generator: Adobe Illustrator 25.0.0, SVG Export Plug-In . SVG Version: 6.00 Build 0)  -->
<svg version="1.1" id="图层_1" xmlns="http://www.w3.org/2000/svg" xmlns:xlink="http://www.w3.org/1999/xlink" x="0px" y="0px"
	 viewBox="0 0 1024 1024" style="enable-background:new 0 0 1024 1024;" xml:space="preserve">
<style type="text/css">
	.st0{clip-path:url(#SVGID_2_);}
	.st1{fill:#FFFFFF;}
	.st2{fill:#FFD6C5;}
	.st3{fill:#36BFAB;}
	.st4{fill:#21ACAE;}
	.st5{fill:#E75246;}
	.st6{fill:#FB6F64;}
</style>
<g>
	<defs>
		<rect id="SVGID_1_" x="-671.3" y="-633.3" width="2366.5" height="2366.5"/>
	</defs>
	<clipPath id="SVGID_2_">
		<use xlink:href="#SVGID_1_"  style="overflow:visible;"/>
	</clipPath>
	<g id="面性保护" class="st0">
		<rect x="-671.3" y="-633.3" class="st1" width="2366.5" height="2366.5"/>
		<g id="组_97" transform="translate(-2.656 0.356)">
			<g id="组_96" transform="translate(-0.456 -94.488)">
				<path id="路径_232" class="st2" d="M176.5,973.2l23.8,0.9c0,0,84-135.1,56.1-165c-37.7-38.1-77.6-74-119.5-107.5
					c-7-6.5-12-14.9-14.4-24.2c-28-127.2-67-220.5-67-220.5c-9.8-21.6-7.4-33.3-1.7-38.4c10.3-9.4,19.2-7.2,19.3-7.2
					c11.4-0.7,28.4,12.5,38.8,26.5c5.1,7,67.5,121.4,67.5,121.4c-10.4,5.4-28.9,15.6-28.7,45.3c1.3,19.2,14.4,37.6,35.2,57.6
					c20.8,20,46.1,39,65.3,53.9c6.2,4.9,23.6,18.2,23.6,18.2c-4.7-11.4-11.5-21.9-20-31c-17.7-18.9-32.2-33.2-41-41
					c-9.6-8.6-23.8-20.5-29.5-25.8c-25.9-24-15.8-46-9.6-52.5c17.7-18.3,33.8-14.1,68,14.8c22,18.6,45.1,39,62.2,52.3
					c33,25.6,62.2,38.4,74,48c8.1,6.7,30.8,22.2,33.9,55.4c5.8,61-89.7,178.3-68.2,224.9l26.9,1l0.4,80.9l-192.3-6.7L176.5,973.2
					L176.5,973.2z M232.7,1025.2c5.2-5.2,5.2-13.6,0-18.8c-5.2-5.2-13.6-5.2-18.8,0s-5.2,13.6,0,18.8
					C219.1,1030.4,227.5,1030.4,232.7,1025.2L232.7,1025.2z"/>
				<path id="路径_233" class="st2" d="M852.2,973.2l-23.8,0.9c0,0-84-135.1-56.1-165c37.7-38.1,77.6-74,119.5-107.5
					c7-6.5,12-14.9,14.4-24.2c28-127.2,67-220.5,67-220.5c9.8-21.6,7.4-33.3,1.7-38.4c-10.3-9.4-19.2-7.2-19.3-7.2
					c-11.4-0.7-28.4,12.5-38.8,26.5c-5.1,7-67.5,121.4-67.5,121.4c10.4,5.4,28.9,15.6,28.7,45.3c-1.3,19.2-14.4,37.6-35.2,57.6
					c-20.8,20-46.1,39-65.3,53.9c-6.2,4.9-23.6,18.2-23.6,18.2c4.7-11.4,11.5-21.9,20-31c17.7-18.9,32.2-33.2,41-41
					c9.6-8.6,23.8-20.5,29.5-25.8c25.9-24,15.8-46,9.6-52.5c-17.7-18.3-33.8-14.1-68,14.8c-22,18.6-45.1,39-62.2,52.3
					c-33,25.6-62.2,38.4-74,48c-8.1,6.7-30.8,22.2-33.9,55.4c-5.8,61,89.7,178.3,68.2,224.9l-26.9,1l-0.4,80.9l192.3-6.7
					L852.2,973.2L852.2,973.2z M796,1025.2c-5.2-5.2-5.2-13.6,0-18.8s13.6-5.2,18.8,0s5.2,13.6,0,18.8
					C809.6,1030.4,801.2,1030.4,796,1025.2L796,1025.2z"/>
				<path id="矩形_307" class="st3" d="M165.9,974.3h210.3c11.5,0,20.8,9.3,20.8,20.8v69.3l0,0H145.1l0,0v-69.3
					C145.1,983.6,154.4,974.3,165.9,974.3z"/>
				<path id="矩形_308" class="st3" d="M658.1,972h210.3c11.5,0,20.8,9.3,20.8,20.8v71.6l0,0H637.3l0,0v-71.6
					C637.3,981.3,646.7,972,658.1,972z"/>
				<path id="矩形_309" class="st4" d="M762.1,972h106.3c11.5,0,20.8,9.3,20.8,20.8v71.6l0,0H762.1l0,0V972L762.1,972z"/>
				<path id="矩形_310" class="st4" d="M269.9,972h106.3c11.5,0,20.8,9.3,20.8,20.8v71.6l0,0H269.9l0,0V972L269.9,972z"/>
			</g>
			<path id="路径_234" class="st5" d="M652.4,42c-54.5,0-105.1,53-138.5,92.7C480.6,95,429.9,42,375.4,42
				c-98.2,0-178.1,77.1-178.1,171.8c0,56.5,28.6,96.2,51.6,128c66.8,92.5,234.9,207.7,242.1,212.5c13.8,9.4,31.9,9.4,45.8,0
				c7.1-4.9,175.2-120,242.1-212.5c23-31.9,51.6-71.5,51.6-128C830.5,119.1,750.6,42,652.4,42L652.4,42z"/>
			<path id="交叉_17" class="st6" d="M212.2,281.2c-9.8-21.4-14.8-44.7-14.9-68.2c0-94.7,79.9-171.8,178.1-171.8
				c54.5,0,105.2,53,138.5,92.7c33.3-39.8,84-92.7,138.5-92.7c26.2,0,52.2,5.6,76.1,16.5v111.5c0,61.9-50.2,112.1-112.1,112.1l0,0
				H212.2z"/>
			<path id="联合_87" class="st1" d="M512.3,430.3c-14,0-25.4-11.4-25.4-25.4v-64.7h-64.7c-14,0-25.4-11.4-25.4-25.4V287
				c0-14,11.4-25.4,25.4-25.4h64.7v-64.7c0-14,11.4-25.4,25.4-25.4l0,0h27.7c14,0,25.4,11.4,25.4,25.4l0,0v64.7h64.7
				c14,0,25.4,11.4,25.4,25.4v27.7c0,14-11.4,25.4-25.4,25.4h-64.7v64.7c0,14-11.4,25.4-25.4,25.4H512.3z"/>
		</g>
	</g>
</g>
</svg>
